<svg width="418" height="204" viewBox="0 0 418 204" fill="none" xmlns="http://www.w3.org/2000/svg">
<path d="M93.5613 11.7944C67.4878 13.2646 10.8711 38.9925 10.8711 105.885C10.8711 151.46 51.0986 180.863 83.1319 189.684C128.574 196.3 150.923 185.274 176.252 160.281C194.13 142.639 205.305 119.792 210.519 104.356C215.734 88.9188 224.814 69.0715 232.868 55.1643C251.173 23.5556 313.324 -11.7282 369.942 30.1715C372.854 32.3265 375.567 34.5333 378.089 36.7844M378.089 36.7844C424.615 78.3016 406.627 134.871 387.076 158.811C369.942 179.792 314.813 217.617 258.199 170.572L378.089 36.7844ZM378.089 36.7844L400.483 11.7944" stroke="#8A8F85" stroke-width="20.58"/>
</svg>
