<svg width="132" height="72" viewBox="0 0 132 72" fill="none" xmlns="http://www.w3.org/2000/svg">
<path d="M35.378 3.20556C28.721 3.58596 14.2656 10.243 14.2656 27.5514C14.2656 39.3439 24.5365 46.9519 32.7152 49.2344C44.3175 50.9462 50.0236 48.0932 56.4905 41.6263C61.0553 37.0615 63.9083 31.1499 65.2397 27.1556C66.5711 23.1614 68.8895 18.0259 70.9457 14.4275C75.6193 6.24874 91.4876 -2.88089 105.943 7.9606C106.687 8.5182 107.379 9.08922 108.023 9.67168M108.023 9.67168C119.902 20.4142 115.31 35.0515 110.318 41.2459C105.943 46.6747 91.8679 56.462 77.4132 44.2891L108.023 9.67168ZM108.023 9.67168L113.741 3.20556" stroke="#8A8F85" stroke-width="4.18444"/>
<path d="M2.26301 67.3337C1.86308 67.3337 1.47519 67.2807 1.09936 67.1747C0.728335 67.0638 0.429592 66.9217 0.203125 66.7482L0.600647 65.8665C0.817477 66.0255 1.07526 66.1532 1.37401 66.2495C1.67275 66.3459 1.97149 66.3941 2.27024 66.3941C2.60271 66.3941 2.84845 66.3459 3.00746 66.2495C3.16647 66.1483 3.24597 66.0158 3.24597 65.852C3.24597 65.7315 3.19779 65.6328 3.10142 65.5557C3.00987 65.4738 2.88941 65.4087 2.74004 65.3605C2.59548 65.3123 2.39793 65.2593 2.14737 65.2015C1.76189 65.11 1.44628 65.0184 1.20054 64.9269C0.954802 64.8353 0.742791 64.6883 0.564508 64.486C0.391044 64.2836 0.304312 64.0138 0.304312 63.6765C0.304312 63.3826 0.383817 63.1175 0.542825 62.8814C0.701834 62.6405 0.940347 62.4502 1.25836 62.3104C1.5812 62.1707 1.9739 62.1008 2.43647 62.1008C2.75931 62.1008 3.07492 62.1394 3.3833 62.2165C3.69168 62.2936 3.96151 62.4044 4.1928 62.549L3.83141 63.438C3.36402 63.1729 2.89664 63.0404 2.42925 63.0404C2.10159 63.0404 1.85826 63.0934 1.69925 63.1995C1.54506 63.3055 1.46797 63.4452 1.46797 63.6187C1.46797 63.7921 1.55711 63.9222 1.73539 64.0089C1.91849 64.0909 2.19555 64.1728 2.56657 64.2547C2.95205 64.3462 3.26766 64.4378 3.5134 64.5293C3.75914 64.6209 3.96874 64.7654 4.1422 64.963C4.32049 65.1606 4.40963 65.428 4.40963 65.7653C4.40963 66.0544 4.32771 66.3194 4.16389 66.5603C4.00488 66.7964 3.76396 66.9843 3.44112 67.1241C3.11828 67.2638 2.72558 67.3337 2.26301 67.3337Z" fill="#8A8F85"/>
<path d="M11.4327 66.1628H9.08372L8.63561 67.2469H7.43582L9.69085 62.1876H10.8473L13.1095 67.2469H11.8808L11.4327 66.1628ZM11.0641 65.2738L10.2618 63.3368L9.45956 65.2738H11.0641Z" fill="#8A8F85"/>
<path d="M21.1657 62.1876V67.2469H20.2044L17.6819 64.1752V67.2469H16.5255V62.1876H17.494L20.0092 65.2593V62.1876H21.1657Z" fill="#8A8F85"/>
<path d="M25.2538 62.1876H27.5522C28.1015 62.1876 28.5857 62.2936 29.0049 62.5056C29.4289 62.7128 29.7566 63.0067 29.9879 63.3874C30.224 63.768 30.342 64.2113 30.342 64.7173C30.342 65.2232 30.224 65.6665 29.9879 66.0472C29.7566 66.4278 29.4289 66.7241 29.0049 66.9362C28.5857 67.1433 28.1015 67.2469 27.5522 67.2469H25.2538V62.1876ZM27.4943 66.2857C28.0003 66.2857 28.4026 66.1459 28.7014 65.8665C29.0049 65.5822 29.1567 65.1991 29.1567 64.7173C29.1567 64.2354 29.0049 63.8548 28.7014 63.5753C28.4026 63.291 28.0003 63.1489 27.4943 63.1489H26.4246V66.2857H27.4943Z" fill="#8A8F85"/>
<path d="M38.0335 66.3073V67.2469H34.1161V62.1876H37.9396V63.1272H35.2798V64.2258H37.6288V65.1365H35.2798V66.3073H38.0335Z" fill="#8A8F85"/>
<path d="M46.4964 62.1876V67.2469H45.5351L43.0126 64.1752V67.2469H41.8562V62.1876H42.8247L45.34 65.2593V62.1876H46.4964Z" fill="#8A8F85"/>
<path d="M57.9726 67.3337C57.4474 67.3337 56.9728 67.2204 56.5488 66.994C56.1296 66.7675 55.7995 66.4567 55.5586 66.0616C55.3225 65.6617 55.2044 65.2136 55.2044 64.7173C55.2044 64.221 55.3225 63.7753 55.5586 63.3801C55.7995 62.9802 56.1296 62.667 56.5488 62.4405C56.9728 62.2141 57.4474 62.1008 57.9726 62.1008C58.4978 62.1008 58.97 62.2141 59.3892 62.4405C59.8084 62.667 60.1385 62.9802 60.3794 63.3801C60.6204 63.7753 60.7408 64.221 60.7408 64.7173C60.7408 65.2136 60.6204 65.6617 60.3794 66.0616C60.1385 66.4567 59.8084 66.7675 59.3892 66.994C58.97 67.2204 58.4978 67.3337 57.9726 67.3337ZM57.9726 66.3363C58.2714 66.3363 58.5412 66.2688 58.7821 66.1339C59.023 65.9941 59.211 65.8014 59.3459 65.5557C59.4856 65.3099 59.5555 65.0305 59.5555 64.7173C59.5555 64.4041 59.4856 64.1246 59.3459 63.8789C59.211 63.6331 59.023 63.4428 58.7821 63.3079C58.5412 63.1681 58.2714 63.0983 57.9726 63.0983C57.6739 63.0983 57.404 63.1681 57.1631 63.3079C56.9222 63.4428 56.7319 63.6331 56.5921 63.8789C56.4572 64.1246 56.3898 64.4041 56.3898 64.7173C56.3898 65.0305 56.4572 65.3099 56.5921 65.5557C56.7319 65.8014 56.9222 65.9941 57.1631 66.1339C57.404 66.2688 57.6739 66.3363 57.9726 66.3363ZM59.7579 61.6816H60.5168L56.1946 67.7529H55.4357L59.7579 61.6816Z" fill="#8A8F85"/>
<path d="M66.3549 65.2593L65.6755 65.9676V67.2469H64.5118V62.1876H65.6755V64.551L67.9161 62.1876H69.2171L67.121 64.4426L69.3399 67.2469H67.9739L66.3549 65.2593Z" fill="#8A8F85"/>
<path d="M75.0197 67.3337C74.4945 67.3337 74.0199 67.2204 73.5959 66.994C73.1767 66.7675 72.8466 66.4567 72.6057 66.0616C72.3696 65.6617 72.2515 65.2136 72.2515 64.7173C72.2515 64.221 72.3696 63.7753 72.6057 63.3801C72.8466 62.9802 73.1767 62.667 73.5959 62.4405C74.0199 62.2141 74.4945 62.1008 75.0197 62.1008C75.545 62.1008 76.0172 62.2141 76.4364 62.4405C76.8556 62.667 77.1856 62.9802 77.4266 63.3801C77.6675 63.7753 77.7879 64.221 77.7879 64.7173C77.7879 65.2136 77.6675 65.6617 77.4266 66.0616C77.1856 66.4567 76.8556 66.7675 76.4364 66.994C76.0172 67.2204 75.545 67.3337 75.0197 67.3337ZM75.0197 66.3363C75.3185 66.3363 75.5883 66.2688 75.8292 66.1339C76.0702 65.9941 76.2581 65.8014 76.393 65.5557C76.5327 65.3099 76.6026 65.0305 76.6026 64.7173C76.6026 64.4041 76.5327 64.1246 76.393 63.8789C76.2581 63.6331 76.0702 63.4428 75.8292 63.3079C75.5883 63.1681 75.3185 63.0983 75.0197 63.0983C74.721 63.0983 74.4512 63.1681 74.2103 63.3079C73.9693 63.4428 73.779 63.6331 73.6393 63.8789C73.5043 64.1246 73.4369 64.4041 73.4369 64.7173C73.4369 65.0305 73.5043 65.3099 73.6393 65.5557C73.779 65.8014 73.9693 65.9941 74.2103 66.1339C74.4512 66.2688 74.721 66.3363 75.0197 66.3363Z" fill="#8A8F85"/>
<path d="M86.1991 62.1876V67.2469H85.2379L82.7154 64.1752V67.2469H81.559V62.1876H82.5275L85.0427 65.2593V62.1876H86.1991Z" fill="#8A8F85"/>
<path d="M92.7374 67.3337C92.2122 67.3337 91.7376 67.2204 91.3136 66.994C90.8944 66.7675 90.5643 66.4567 90.3234 66.0616C90.0873 65.6617 89.9692 65.2136 89.9692 64.7173C89.9692 64.221 90.0873 63.7753 90.3234 63.3801C90.5643 62.9802 90.8944 62.667 91.3136 62.4405C91.7376 62.2141 92.2122 62.1008 92.7374 62.1008C93.2626 62.1008 93.7348 62.2141 94.154 62.4405C94.5732 62.667 94.9033 62.9802 95.1442 63.3801C95.3851 63.7753 95.5056 64.221 95.5056 64.7173C95.5056 65.2136 95.3851 65.6617 95.1442 66.0616C94.9033 66.4567 94.5732 66.7675 94.154 66.994C93.7348 67.2204 93.2626 67.3337 92.7374 67.3337ZM92.7374 66.3363C93.0362 66.3363 93.306 66.2688 93.5469 66.1339C93.7878 65.9941 93.9758 65.8014 94.1107 65.5557C94.2504 65.3099 94.3203 65.0305 94.3203 64.7173C94.3203 64.4041 94.2504 64.1246 94.1107 63.8789C93.9758 63.6331 93.7878 63.4428 93.5469 63.3079C93.306 63.1681 93.0362 63.0983 92.7374 63.0983C92.4387 63.0983 92.1688 63.1681 91.9279 63.3079C91.687 63.4428 91.4967 63.6331 91.3569 63.8789C91.222 64.1246 91.1546 64.4041 91.1546 64.7173C91.1546 65.0305 91.222 65.3099 91.3569 65.5557C91.4967 65.8014 91.687 65.9941 91.9279 66.1339C92.1688 66.2688 92.4387 66.3363 92.7374 66.3363Z" fill="#8A8F85"/>
<path d="M103.881 67.2469L103.873 64.2113L102.385 66.7121H101.857L100.375 64.2764V67.2469H99.2766V62.1876H100.245L102.139 65.3316L104.004 62.1876H104.965L104.979 67.2469H103.881Z" fill="#8A8F85"/>
<path d="M109.071 62.1876H110.242V67.2469H109.071V62.1876Z" fill="#8A8F85"/>
<path d="M122.603 66.1628H120.254L119.806 67.2469H118.606L120.861 62.1876H122.018L124.28 67.2469H123.051L122.603 66.1628ZM122.235 65.2738L121.432 63.3368L120.63 65.2738H122.235Z" fill="#8A8F85"/>
<path d="M129.358 67.3337C128.958 67.3337 128.571 67.2807 128.195 67.1747C127.824 67.0638 127.525 66.9217 127.299 66.7482L127.696 65.8665C127.913 66.0255 128.171 66.1532 128.469 66.2495C128.768 66.3459 129.067 66.3941 129.366 66.3941C129.698 66.3941 129.944 66.3459 130.103 66.2495C130.262 66.1483 130.341 66.0158 130.341 65.852C130.341 65.7315 130.293 65.6328 130.197 65.5557C130.105 65.4738 129.985 65.4087 129.835 65.3605C129.691 65.3123 129.493 65.2593 129.243 65.2015C128.857 65.11 128.542 65.0184 128.296 64.9269C128.05 64.8353 127.838 64.6883 127.66 64.486C127.486 64.2836 127.4 64.0138 127.4 63.6765C127.4 63.3826 127.479 63.1175 127.638 62.8814C127.797 62.6405 128.036 62.4502 128.354 62.3104C128.677 62.1707 129.069 62.1008 129.532 62.1008C129.855 62.1008 130.17 62.1394 130.479 62.2165C130.787 62.2936 131.057 62.4044 131.288 62.549L130.927 63.438C130.459 63.1729 129.992 63.0404 129.525 63.0404C129.197 63.0404 128.954 63.0934 128.795 63.1995C128.64 63.3055 128.563 63.4452 128.563 63.6187C128.563 63.7921 128.653 63.9222 128.831 64.0089C129.014 64.0909 129.291 64.1728 129.662 64.2547C130.047 64.3462 130.363 64.4378 130.609 64.5293C130.855 64.6209 131.064 64.7654 131.238 64.963C131.416 65.1606 131.505 65.428 131.505 65.7653C131.505 66.0544 131.423 66.3194 131.259 66.5603C131.1 66.7964 130.859 66.9843 130.537 67.1241C130.214 67.2638 129.821 67.3337 129.358 67.3337Z" fill="#8A8F85"/>
</svg>
